<?xml version="1.0" standalone="no"?>
<!DOCTYPE svg PUBLIC "-//W3C//DTD SVG 20010904//EN"
 "http://www.w3.org/TR/2001/REC-SVG-20010904/DTD/svg10.dtd">
<svg version="1.0" xmlns="http://www.w3.org/2000/svg"
 width="1024.000000pt" height="1024.000000pt" viewBox="0 0 1024.000000 1024.000000"
 preserveAspectRatio="xMidYMid meet">

<g transform="translate(0.000000,1024.000000) scale(0.100000,-0.100000)"
fill="#000000" stroke="none">
<path d="M4880 10234 c-30 -2 -113 -8 -185 -14 -958 -79 -1875 -427 -2641
-1003 l-122 -91 27 -32 c14 -17 319 -352 676 -745 1250 -1372 1385 -1524 1385
-1553 0 -12 -5 -61 -10 -111 -18 -155 -88 -266 -228 -359 -112 -74 -201 -103
-467 -151 -105 -19 -164 -49 -206 -107 -41 -58 -57 -119 -74 -292 -32 -316
-60 -415 -198 -718 -130 -284 -158 -391 -137 -521 31 -195 116 -306 382 -498
244 -176 321 -273 334 -424 8 -92 -9 -205 -40 -269 -74 -150 -293 -319 -563
-432 -179 -75 -524 -167 -566 -151 -10 4 -17 17 -17 34 0 41 -54 148 -160 319
-157 252 -219 396 -256 591 -24 128 -15 390 16 488 49 154 93 222 373 580 292
373 415 614 462 907 9 57 23 144 31 193 20 127 50 236 83 308 25 56 48 89 158
231 39 49 49 93 34 138 -19 53 -179 348 -588 1082 -211 379 -382 692 -381 696
2 4 165 -243 362 -549 545 -843 744 -1140 801 -1197 90 -90 192 -113 334 -74
130 37 212 92 232 159 21 72 38 49 -680 931 -588 722 -1192 1460 -1197 1460
-13 0 -263 -232 -399 -371 -176 -180 -303 -328 -444 -518 -828 -1111 -1167
-2517 -940 -3891 149 -901 530 -1729 1128 -2450 123 -149 483 -509 631 -631
613 -507 1270 -844 2026 -1039 253 -66 512 -109 839 -142 155 -15 695 -15 850
0 716 72 1290 234 1880 532 503 255 899 543 1311 954 301 302 505 554 713 885
717 1135 957 2506 670 3831 -122 565 -357 1135 -671 1633 -408 647 -996 1228
-1640 1622 -698 428 -1410 664 -2248 745 -110 11 -586 21 -680 14z m-794
-1883 c340 -70 604 -233 929 -575 l136 -143 117 20 c97 16 167 20 402 21 190
1 313 -3 370 -12 214 -33 431 -94 613 -173 101 -44 292 -150 337 -188 42 -35
59 -108 66 -281 7 -157 -7 -242 -57 -350 -25 -54 -30 -76 -25 -104 9 -49 50
-94 96 -106 115 -31 234 120 297 378 15 62 30 112 33 112 10 -1 135 -161 198
-253 83 -122 184 -321 227 -449 33 -101 60 -227 53 -248 -2 -6 -23 19 -47 56
-85 130 -197 224 -331 278 -117 48 -258 69 -600 91 -431 27 -608 54 -830 126
-355 115 -542 275 -975 834 -207 268 -309 387 -442 515 -257 248 -510 382
-833 442 -70 12 -117 25 -113 31 10 16 267 1 379 -22z m3113 -192 c-44 -144
-23 -444 41 -574 21 -43 67 -101 157 -196 202 -214 363 -397 363 -413 0 -4
-53 39 -117 94 -127 110 -258 212 -303 235 -45 23 -63 2 -67 -81 -14 -291 -36
-413 -98 -532 -39 -77 -44 -69 -14 21 20 58 21 78 16 297 -4 204 -7 244 -25
300 -49 150 -130 224 -402 367 -63 33 -145 73 -182 89 -38 16 -68 32 -68 37 0
5 8 6 18 3 9 -3 58 -16 108 -30 51 -14 170 -53 265 -86 139 -49 175 -58 185
-48 8 8 17 71 24 153 13 162 29 246 64 338 48 129 72 146 35 26z m-3359 -21
c179 -57 312 -160 381 -293 51 -98 72 -165 139 -442 64 -262 80 -302 197 -495
87 -144 79 -167 -60 -155 -133 11 -294 105 -437 254 -102 105 -163 195 -229
335 -106 223 -155 432 -156 658 0 80 3 152 7 162 8 19 43 13 158 -24z m1951
-1706 c175 -126 334 -173 869 -257 162 -26 360 -60 439 -76 554 -115 941 -380
1126 -772 49 -102 90 -234 106 -341 15 -96 5 -408 -16 -506 -27 -123 -131
-370 -156 -370 -10 0 -15 23 -24 98 -20 178 -123 353 -280 479 -182 145 -380
246 -925 470 -884 362 -1195 632 -1250 1083 -11 94 -13 230 -4 255 5 13 9 14
24 3 9 -7 51 -37 91 -66z m-1360 -325 c63 -31 146 -112 178 -176 69 -134 17
-244 -151 -321 -120 -54 -331 -78 -430 -48 -55 16 -105 74 -114 133 -21 142
15 254 112 351 82 81 119 95 244 91 91 -2 112 -6 161 -30z m1883 -997 c73
-141 86 -198 86 -376 0 -175 -10 -216 -83 -359 -32 -63 -62 -101 -142 -180
-119 -118 -205 -171 -369 -226 -144 -49 -250 -65 -531 -84 -425 -28 -610 -54
-809 -116 -54 -17 -100 -28 -103 -25 -18 18 315 185 442 221 91 26 282 65 635
130 321 59 450 116 601 265 139 137 205 283 216 476 6 109 -13 258 -48 369
-10 33 -19 65 -19 70 1 23 83 -87 124 -165z m371 -73 c39 -24 183 -106 320
-182 397 -219 550 -320 707 -464 178 -164 310 -418 349 -671 14 -90 5 -359
-15 -470 -30 -167 -120 -373 -227 -523 -74 -104 -227 -254 -324 -318 -78 -51
-194 -114 -200 -108 -2 3 14 45 36 94 72 161 84 219 83 395 0 138 -3 165 -27
245 -31 101 -113 277 -190 405 -28 47 -135 213 -237 370 -209 319 -274 429
-326 551 -81 191 -112 408 -81 579 18 101 32 140 50 140 7 0 44 -20 82 -43z
m-1795 -1551 c349 -47 619 -227 760 -506 64 -126 86 -214 145 -557 50 -294 87
-397 178 -499 85 -94 195 -129 381 -122 104 5 137 11 234 43 63 20 116 34 119
32 7 -8 -70 -62 -152 -107 -240 -132 -486 -129 -690 9 -54 37 -156 144 -201
213 -25 37 -72 125 -105 195 -33 70 -81 173 -107 228 -104 221 -177 329 -284
415 -74 59 -202 124 -276 139 -165 34 -342 -14 -432 -116 -57 -65 -84 -137
-84 -223 1 -159 100 -278 276 -331 150 -46 294 22 343 160 30 87 14 194 -38
249 -61 66 -191 98 -271 68 -124 -47 -153 -197 -50 -258 21 -12 32 -24 25 -26
-21 -7 -87 45 -104 81 -32 66 -12 150 49 211 98 98 292 89 412 -19 72 -65 95
-125 96 -247 0 -91 -2 -100 -37 -171 -96 -193 -305 -269 -540 -197 -100 31
-172 86 -374 282 -116 112 -219 203 -268 236 -130 85 -266 131 -522 173 -73
13 -133 26 -133 29 0 15 191 166 319 252 281 188 651 337 926 371 76 10 310 5
405 -7z"/>
<path d="M4205 6077 c-71 -28 -105 -66 -105 -120 0 -58 86 -111 180 -111 150
0 231 105 147 189 -51 51 -151 70 -222 42z"/>
<path d="M2132 4034 c-33 -23 -28 -57 15 -92 l38 -30 -29 -60 c-31 -64 -29
-89 7 -122 29 -28 95 -27 137 3 47 31 70 81 70 148 0 65 -24 109 -79 146 -41
28 -124 32 -159 7z"/>
</g>
</svg>
